<?xml version="1.0" encoding="us-ascii" standalone="no"?><svg xmlns="http://www.w3.org/2000/svg" xmlns:xlink="http://www.w3.org/1999/xlink" contentStyleType="text/css" height="841px" preserveAspectRatio="none" style="width:863px;height:841px;background:#FFFFFF;" version="1.1" viewBox="0 0 863 841" width="863px" zoomAndPan="magnify"><defs/><g><text fill="#000000" font-family="sans-serif" font-size="14" font-weight="bold" lengthAdjust="spacing" textLength="237" x="306" y="24.5332">PeerPrep High-Level Architecture</text><!--cluster Client Layer--><g id="cluster_Client Layer"><path d="M626.5,44.6094 L710.5,44.6094 A3.75,3.75 0 0 1 713,47.1094 L720,68.2188 L823.5,68.2188 A2.5,2.5 0 0 1 826,70.7188 L826,132.1094 A2.5,2.5 0 0 1 823.5,134.6094 L626.5,134.6094 A2.5,2.5 0 0 1 624,132.1094 L624,47.1094 A2.5,2.5 0 0 1 626.5,44.6094 " fill="none" style="stroke:#000000;stroke-width:1.5;"/><line style="stroke:#000000;stroke-width:1.5;" x1="624" x2="720" y1="68.2188" y2="68.2188"/><text fill="#000000" font-family="sans-serif" font-size="14" font-weight="bold" lengthAdjust="spacing" textLength="83" x="628" y="61.1426">Client Layer</text></g><!--cluster Gateway Layer--><g id="cluster_Gateway Layer"><path d="M655.5,182.6094 L757.5,182.6094 A3.75,3.75 0 0 1 760,185.1094 L767,206.2188 L794.5,206.2188 A2.5,2.5 0 0 1 797,208.7188 L797,270.1094 A2.5,2.5 0 0 1 794.5,272.6094 L655.5,272.6094 A2.5,2.5 0 0 1 653,270.1094 L653,185.1094 A2.5,2.5 0 0 1 655.5,182.6094 " fill="none" style="stroke:#000000;stroke-width:1.5;"/><line style="stroke:#000000;stroke-width:1.5;" x1="653" x2="767" y1="206.2188" y2="206.2188"/><text fill="#000000" font-family="sans-serif" font-size="14" font-weight="bold" lengthAdjust="spacing" textLength="101" x="657" y="199.1426">Gateway Layer</text></g><!--cluster Microservices--><g id="cluster_Microservices"><path d="M355.5,320.6094 L457.5,320.6094 A3.75,3.75 0 0 1 460,323.1094 L467,344.2188 L788.5,344.2188 A2.5,2.5 0 0 1 791,346.7188 L791,684.1094 A2.5,2.5 0 0 1 788.5,686.6094 L355.5,686.6094 A2.5,2.5 0 0 1 353,684.1094 L353,323.1094 A2.5,2.5 0 0 1 355.5,320.6094 " fill="none" style="stroke:#000000;stroke-width:1.5;"/><line style="stroke:#000000;stroke-width:1.5;" x1="353" x2="467" y1="344.2188" y2="344.2188"/><text fill="#000000" font-family="sans-serif" font-size="14" font-weight="bold" lengthAdjust="spacing" textLength="101" x="357" y="337.1426">Microservices</text></g><!--cluster Infrastructure / External--><g id="cluster_Infrastructure / External"><path d="M8.5,734.6094 L176.5,734.6094 A3.75,3.75 0 0 1 179,737.1094 L186,758.2188 L853.5,758.2188 A2.5,2.5 0 0 1 856,760.7188 L856,832.1094 A2.5,2.5 0 0 1 853.5,834.6094 L8.5,834.6094 A2.5,2.5 0 0 1 6,832.1094 L6,737.1094 A2.5,2.5 0 0 1 8.5,734.6094 " fill="none" style="stroke:#000000;stroke-width:1.5;"/><line style="stroke:#000000;stroke-width:1.5;" x1="6" x2="186" y1="758.2188" y2="758.2188"/><text fill="#000000" font-family="sans-serif" font-size="14" font-weight="bold" lengthAdjust="spacing" textLength="167" x="10" y="751.1426">Infrastructure / External</text></g><!--entity FE--><g id="elem_FE"><rect fill="#E1F5FE" height="37.6094" rx="2.5" ry="2.5" style="stroke:#181818;stroke-width:0.5;" width="169" x="640.5" y="80.6094"/><text fill="#000000" font-family="sans-serif" font-size="14" lengthAdjust="spacing" textLength="149" x="650.5" y="105.1426">Frontend (React + Vite)</text></g><!--entity GW--><g id="elem_GW"><rect fill="#E0F2F1" height="37.6094" rx="2.5" ry="2.5" style="stroke:#181818;stroke-width:0.5;" width="112" x="669" y="218.6094"/><text fill="#000000" font-family="sans-serif" font-size="14" lengthAdjust="spacing" textLength="92" x="679" y="243.1426">nginx Gateway</text></g><!--entity US--><g id="elem_US"><rect fill="#F3E5F5" height="37.6094" rx="2.5" ry="2.5" style="stroke:#181818;stroke-width:0.5;" width="100" x="369" y="356.6094"/><text fill="#000000" font-family="sans-serif" font-size="14" lengthAdjust="spacing" textLength="80" x="379" y="381.1426">User Service</text></g><!--entity QS--><g id="elem_QS"><rect fill="#F3E5F5" height="37.6094" rx="2.5" ry="2.5" style="stroke:#181818;stroke-width:0.5;" width="128" x="369" y="494.6094"/><text fill="#000000" font-family="sans-serif" font-size="14" lengthAdjust="spacing" textLength="108" x="379" y="519.1426">Question Service</text></g><!--entity MS--><g id="elem_MS"><rect fill="#F3E5F5" height="37.6094" rx="2.5" ry="2.5" style="stroke:#181818;stroke-width:0.5;" width="128" x="647" y="494.6094"/><text fill="#000000" font-family="sans-serif" font-size="14" lengthAdjust="spacing" textLength="108" x="657" y="519.1426">Matching Service</text></g><!--entity CS--><g id="elem_CS"><rect fill="#F3E5F5" height="37.6094" rx="2.5" ry="2.5" style="stroke:#181818;stroke-width:0.5;" width="183" x="591.5" y="632.6094"/><text fill="#000000" font-family="sans-serif" font-size="14" lengthAdjust="spacing" textLength="163" x="601.5" y="657.1426">Collaboration Service (x3)</text></g><!--entity DB--><g id="elem_DB"><path d="M22,781.1094 C22,771.1094 63,771.1094 63,771.1094 C63,771.1094 104,771.1094 104,781.1094 L104,807.7188 C104,817.7188 63,817.7188 63,817.7188 C63,817.7188 22,817.7188 22,807.7188 L22,781.1094 " fill="#FAFAFA" style="stroke:#181818;stroke-width:0.5;"/><path d="M22,781.1094 C22,791.1094 63,791.1094 63,791.1094 C63,791.1094 104,791.1094 104,781.1094 " fill="none" style="stroke:#181818;stroke-width:0.5;"/><text fill="#000000" font-family="sans-serif" font-size="14" lengthAdjust="spacing" textLength="62" x="32" y="809.6426">MongoDB</text></g><!--entity RD--><g id="elem_RD"><polygon fill="#FAFAFA" points="254,780.6094,264,770.6094,330,770.6094,330,808.2188,320,818.2188,254,818.2188,254,780.6094" style="stroke:#181818;stroke-width:0.5;"/><line style="stroke:#181818;stroke-width:0.5;" x1="320" x2="330" y1="780.6094" y2="770.6094"/><line style="stroke:#181818;stroke-width:0.5;" x1="254" x2="320" y1="780.6094" y2="780.6094"/><line style="stroke:#181818;stroke-width:0.5;" x1="320" x2="320" y1="780.6094" y2="818.2188"/><text fill="#000000" font-family="sans-serif" font-size="14" lengthAdjust="spacing" textLength="36" x="269" y="805.1426">Redis</text></g><!--entity PT--><g id="elem_PT"><rect fill="#FAFAFA" height="37.6094" rx="2.5" ry="2.5" style="stroke:#181818;stroke-width:0.5;" width="107" x="732.5" y="775.6094"/><text fill="#000000" font-family="sans-serif" font-size="14" lengthAdjust="spacing" textLength="87" x="742.5" y="800.1426">Piston Engine</text></g><!--entity AI--><g id="elem_AI"><path d="M488.2561,779.2097 C491.7794,772.3582 497.1696,771.3811 502.6414,776.9537 C506.2697,769.8968 513.0634,770.6273 516.9132,776.7132 C519.7395,769.6963 525.9074,768.8114 531.2347,773.7063 C536.5826,766.069 544.2978,768.4358 547.1832,776.2483 C551.264,770.7234 556.9302,770.9832 560.0411,777.3013 C565.7372,771.4037 571.8028,773.1271 574.9681,780.2113 C585.019,781.4358 586.9933,786.7334 582.2065,795.1482 C587.9154,803.3659 584.8358,811.3459 574.4948,812.3813 C570.0788,819.4862 565.5193,818.5037 560.5469,812.9967 C557.5823,820.3284 553.1532,821.7729 547.3051,815.885 C544.3475,823.1476 537.0422,824.0311 532.0842,818.2124 C527.2788,824.1703 520.1715,822.2898 517.4473,815.7709 C512.2501,822.0299 506.785,819.5114 504.0807,813.1339 C498.8625,818.1255 493.5573,817.5226 490.0585,811.0338 C480.9703,810.4262 479.0621,803.3331 483.1796,796.4827 C475.3734,788.2404 479.3829,782.55 488.2561,779.2097 " fill="#FFF9C4" style="stroke:#181818;stroke-width:0.5;"/><text fill="#000000" font-family="sans-serif" font-size="14" lengthAdjust="spacing" textLength="72" x="495" y="800.1426">OpenAI API</text></g><!--link FE to GW--><g id="link_FE_GW"><path d="M725,118.7994 C725,145.1594 725,186.3094 725,212.5794 " fill="none" id="FE-to-GW" style="stroke:#181818;stroke-width:1.0;"/><polygon fill="#181818" points="725,218.5794,729,209.5794,725,213.5794,721,209.5794,725,218.5794" style="stroke:#181818;stroke-width:1.0;"/><text fill="#000000" font-family="sans-serif" font-size="13" lengthAdjust="spacing" textLength="67" x="657" y="165.1845">HTTP/WSS</text></g><!--link GW to US--><g id="link_GW_US"><path d="M668.87,228.6094 C580.54,228.6094 419,228.6094 419,228.6094 C419,228.6094 419,310.5494 419,350.3894 " fill="none" id="GW-to-US" style="stroke:#181818;stroke-width:1.0;"/><polygon fill="#181818" points="419,356.3894,423,347.3894,419,351.3894,415,347.3894,419,356.3894" style="stroke:#181818;stroke-width:1.0;"/><text fill="#000000" font-family="sans-serif" font-size="13" lengthAdjust="spacing" textLength="36" x="443.05" y="225.1045">/users</text></g><!--link GW to QS--><g id="link_GW_QS"><path d="M668.87,237.6094 C597.38,237.6094 483,237.6094 483,237.6094 C483,237.6094 483,425.3794 483,488.1994 " fill="none" id="GW-to-QS" style="stroke:#181818;stroke-width:1.0;"/><polygon fill="#181818" points="483,494.1994,487,485.1994,483,489.1994,479,485.1994,483,494.1994" style="stroke:#181818;stroke-width:1.0;"/><text fill="#000000" font-family="sans-serif" font-size="13" lengthAdjust="spacing" textLength="60" x="422" y="269.4645">/questions</text></g><!--link GW to MS--><g id="link_GW_MS"><path d="M722,257.0194 C722,307.8194 722,438.2294 722,488.5894 " fill="none" id="GW-to-MS" style="stroke:#181818;stroke-width:1.0;"/><polygon fill="#181818" points="722,494.5894,726,485.5894,722,489.5894,718,485.5894,722,494.5894" style="stroke:#181818;stroke-width:1.0;"/><text fill="#000000" font-family="sans-serif" font-size="13" lengthAdjust="spacing" textLength="54" x="667" y="372.2945">/matches</text></g><!--link GW to CS--><g id="link_GW_CS"><path d="M668.9,247.6094 C642.2,247.6094 616,247.6094 616,247.6094 C616,247.6094 616,546.1094 616,626.3994 " fill="none" id="GW-to-CS" style="stroke:#181818;stroke-width:1.0;"/><polygon fill="#181818" points="616,632.3994,620,623.3994,616,627.3994,612,623.3994,616,632.3994" style="stroke:#181818;stroke-width:1.0;"/><text fill="#000000" font-family="sans-serif" font-size="13" lengthAdjust="spacing" textLength="38" x="577" y="410.0445">/collab</text></g><!--link MS to RD--><g id="link_MS_RD"><path d="M698,532.6994 C698,558.0294 698,599.6094 698,599.6094 C698,599.6094 292,599.6094 292,599.6094 C292,599.6094 292,712.0294 292,764.3094 " fill="none" id="MS-to-RD" style="stroke:#181818;stroke-width:1.0;"/><polygon fill="#181818" points="292,770.3094,296,761.3094,292,765.3094,288,761.3094,292,770.3094" style="stroke:#181818;stroke-width:1.0;"/><text fill="#000000" font-family="sans-serif" font-size="13" lengthAdjust="spacing" textLength="38" x="404.11" y="596.1045">Queue</text></g><!--link CS to PT--><g id="link_CS_PT"><path d="M753.5,670.8994 C753.5,698.1894 753.5,741.7994 753.5,769.1694 " fill="none" id="CS-to-PT" style="stroke:#181818;stroke-width:1.0;"/><polygon fill="#181818" points="753.5,775.1694,757.5,766.1694,753.5,770.1694,749.5,766.1694,753.5,775.1694" style="stroke:#181818;stroke-width:1.0;"/><text fill="#000000" font-family="sans-serif" font-size="13" lengthAdjust="spacing" textLength="30" x="722.5" y="719.5245">Exec</text></g><!--link CS to AI--><g id="link_CS_AI"><path d="M591.31,661.6094 C563.18,661.6094 539.5,661.6094 539.5,661.6094 C539.5,661.6094 539.5,726.1994 539.5,764.5194 " fill="none" id="CS-to-AI" style="stroke:#181818;stroke-width:1.0;"/><polygon fill="#181818" points="539.5,770.5194,543.5,761.5194,539.5,765.5194,535.5,761.5194,539.5,770.5194" style="stroke:#181818;stroke-width:1.0;"/><text fill="#000000" font-family="sans-serif" font-size="13" lengthAdjust="spacing" textLength="58" x="480.5" y="686.6545">AI-Prompt</text></g><!--link US to DB--><g id="link_US_DB"><path d="M368.85,375.6094 C265.5,375.6094 38.4,375.6094 38.4,375.6094 C38.4,375.6094 38.4,676.2494 38.4,764.8794 " fill="none" id="US-to-DB" style="stroke:#181818;stroke-width:1.0;"/><polygon fill="#181818" points="38.4,770.8794,42.4,761.8794,38.4,765.8794,34.4,761.8794,38.4,770.8794" style="stroke:#181818;stroke-width:1.0;"/></g><!--link QS to DB--><g id="link_QS_DB"><path d="M368.84,513.6094 C260.94,513.6094 54.8,513.6094 54.8,513.6094 C54.8,513.6094 54.8,696.6994 54.8,764.6494 " fill="none" id="QS-to-DB" style="stroke:#181818;stroke-width:1.0;"/><polygon fill="#181818" points="54.8,770.6494,58.8,761.6494,54.8,765.6494,50.8,761.6494,54.8,770.6494" style="stroke:#181818;stroke-width:1.0;"/></g><!--link MS to DB--><g id="link_MS_DB"><path d="M672.5,532.7394 C672.5,547.9294 672.5,566.6094 672.5,566.6094 C672.5,566.6094 71.2,566.6094 71.2,566.6094 C71.2,566.6094 71.2,706.8194 71.2,765.0694 " fill="none" id="MS-to-DB" style="stroke:#181818;stroke-width:1.0;"/><polygon fill="#181818" points="71.2,771.0694,75.2,762.0694,71.2,766.0694,67.2,762.0694,71.2,771.0694" style="stroke:#181818;stroke-width:1.0;"/></g><!--link CS to DB--><g id="link_CS_DB"><path d="M591.27,651.6094 C424.26,651.6094 87.6,651.6094 87.6,651.6094 C87.6,651.6094 87.6,724.3794 87.6,764.9994 " fill="none" id="CS-to-DB" style="stroke:#181818;stroke-width:1.0;"/><polygon fill="#181818" points="87.6,770.9994,91.6,761.9994,87.6,765.9994,83.6,761.9994,87.6,770.9994" style="stroke:#181818;stroke-width:1.0;"/></g><!--reverse link US to QS--><g id="link_US_QS"><path d="M419,400.7994 C419,427.1594 419,468.3094 419,494.5794 " fill="none" id="US-backto-QS" style="stroke:#888888;stroke-width:1.0;"/><polygon fill="#888888" points="419,394.7994,415,403.7994,419,399.7994,423,403.7994,419,394.7994" style="stroke:#888888;stroke-width:1.0;"/><text fill="#000000" font-family="sans-serif" font-size="13" lengthAdjust="spacing" textLength="27" x="391" y="441.1845">Auth</text></g><!--reverse link US to MS--><g id="link_US_MS"><path d="M475.1,375.6094 C545.18,375.6094 658,375.6094 658,375.6094 C658,375.6094 658,456.4994 658,494.4194 " fill="none" id="US-backto-MS" style="stroke:#888888;stroke-width:1.0;"/><polygon fill="#888888" points="469.1,375.6094,478.1,379.6094,474.1,375.6094,478.1,371.6094,469.1,375.6094" style="stroke:#888888;stroke-width:1.0;"/><text fill="#000000" font-family="sans-serif" font-size="13" lengthAdjust="spacing" textLength="27" x="594.96" y="372.1045">Auth</text></g><!--reverse link QS to MS--><g id="link_QS_MS"><path d="M503.13,513.6094 C548.03,513.6094 601.78,513.6094 646.71,513.6094 " fill="none" id="QS-backto-MS" style="stroke:#D32F2F;stroke-width:1.0;"/><polygon fill="#D32F2F" points="497.13,513.6094,506.13,517.6094,502.13,513.6094,506.13,509.6094,497.13,513.6094" style="stroke:#D32F2F;stroke-width:1.0;"/><text fill="#000000" font-family="sans-serif" font-size="13" lengthAdjust="spacing" textLength="44" x="526.92" y="510.1045">Catalog</text></g><!--link MS to CS--><g id="link_MS_CS"><path d="M749,532.7994 C749,559.1594 749,600.3094 749,626.5794 " fill="none" id="MS-to-CS" style="stroke:#D32F2F;stroke-width:1.0;"/><polygon fill="#D32F2F" points="749,632.5794,753,623.5794,749,627.5794,745,623.5794,749,632.5794" style="stroke:#D32F2F;stroke-width:1.0;"/><text fill="#000000" font-family="sans-serif" font-size="13" lengthAdjust="spacing" textLength="43" x="705" y="579.1845">Handoff</text></g><!--reverse link MS to CS--><g id="link_MS_CS"><path d="M723.5,538.7994 C723.5,565.1594 723.5,606.3094 723.5,632.5794 " fill="none" id="MS-backto-CS" style="stroke:#2E7D32;stroke-width:1.0;"/><polygon fill="#2E7D32" points="723.5,532.7994,719.5,541.7994,723.5,537.7994,727.5,541.7994,723.5,532.7994" style="stroke:#2E7D32;stroke-width:1.0;"/><text fill="#000000" font-family="sans-serif" font-size="13" lengthAdjust="spacing" textLength="106" x="616.5" y="597.1845">Complete Session</text></g><!--reverse link QS to CS--><g id="link_QS_CS"><path d="M488.5,538.6394 C488.5,574.5294 488.5,642.6094 488.5,642.6094 C488.5,642.6094 541,642.6094 591.45,642.6094 " fill="none" id="QS-backto-CS" style="stroke:#2E7D32;stroke-width:1.0;"/><polygon fill="#2E7D32" points="488.5,532.6394,484.5,541.6394,488.5,537.6394,492.5,541.6394,488.5,532.6394" style="stroke:#2E7D32;stroke-width:1.0;"/><text fill="#000000" font-family="sans-serif" font-size="13" lengthAdjust="spacing" textLength="54" x="433.5" y="635.5945">Metadata</text></g><!--SRC=[TLDDJ-Cm4BtdLupImnQj8WfijH-7bKgQq4fKz8F20N4moJIrSEskxK0Bsl- -OoTitPMslJZptdpulR7bLY1C4VLKunP6l5edr_Y20WQwM7EBXQqrHj4dI984hjbUrHPkjfPl-1kpN4aNZympbrkcsGOAjTagYT8kx9uAQyfdiX8OKCoQbUgLomfMJ9WG4LoYtMyHbBPh5G1IbMXelBD-BuXg9fzzjDSB1aHj_4nRLZop2Y5E1QTv6YY6zmZW8TTAMfGbTEV82WkVuOwkUl88p42UGISxo_jv5lsE3bMkcCLNjZyg8oikTz0YFldgdf9x-Nb-TfGyuOLM1lKBBz2qoKlwXaKJyxdB1NJoYwoVznqygz5uVKFAx8WoOPOi8Xr3okI8aYeXs9FIB2m5tTr5SzVqG0x77SkLPiRgsfiFfv3jB6h9H3DwoInxOiRTIybA3IzZLsjuIRK6xayKPnZ4SoovyU1y680FKsuiZPCv_PgffxS1NWXLbn3VR54EnZ2OZdq9EdRoFF-UVd6pDdQd0fc6NAXNRtb4tYLbyjFPy0DY6DtUJa_l5ulOyJyCdDC6euc8ugcakgEUrcI7YV-6PstuLsj304rQQEFanm18Mw3melkc8wNv6-qQ4p14ka-9ik1ee9ihNM092zAS73o9g6YYgGO9vMgG-pN6KTf6IHuNpNPOD47NZWHnmS4ucMfwTTOtl4DjUV5FksZPfWmlezdXE3aSqyEHYgIqh2Rvs9PhLV42kalZLetkfkY1MKMM6B8HwAOep8cl-z3vvd-FzK7OGMtNiM_rVxI5XnVdz78UnK7-b3PDg2e-9WHQZvWirMf59LBFEC- -4ibtQ6rAIHg15cdvQM0busDcq6o2bhdLZly0]--></g></svg>